<svg xmlns="http://www.w3.org/2000/svg" width="25.094" height="24.938" viewBox="0 0 25.094 24.938">
  <metadata><?xpacket begin="﻿" id="W5M0MpCehiHzreSzNTczkc9d"?>
<x:xmpmeta xmlns:x="adobe:ns:meta/" x:xmptk="Adobe XMP Core 5.6-c138 79.159824, 2016/09/14-01:09:01        ">
   <rdf:RDF xmlns:rdf="http://www.w3.org/1999/02/22-rdf-syntax-ns#">
      <rdf:Description rdf:about=""/>
   </rdf:RDF>
</x:xmpmeta>
                                                                                                    
                                                                                                    
                                                                                                    
                                                                                                    
                                                                                                    
                                                                                                    
                                                                                                    
                                                                                                    
                                                                                                    
                                                                                                    
                                                                                                    
                                                                                                    
                                                                                                    
                                                                                                    
                                                                                                    
                                                                                                    
                                                                                                    
                                                                                                    
                                                                                                    
                                                                                                    
                           
<?xpacket end="w"?></metadata>
<defs>
    <style>
      .cls-1 {
        fill: #fff;
        fill-rule: evenodd;
      }
    </style>
  </defs>
  <path id="资金计划" class="cls-1" d="M39.7,576.7a1.763,1.763,0,0,0,.242-0.618,0.742,0.742,0,0,0-.723-0.695,1.052,1.052,0,0,0-.965.541l-3.7,5.33-3.7-5.334a1.055,1.055,0,0,0-.966-0.54,0.741,0.741,0,0,0-.723.694,2.71,2.71,0,0,0,.242.619,0.222,0.222,0,0,1,.082.154l3.3,4.869H30.849a0.712,0.712,0,0,0-.887.694,0.818,0.818,0,0,0,.887.619h2.817v1.388H30.849a0.712,0.712,0,0,0-.887.694,0.822,0.822,0,0,0,.887.619h2.817v3.091a0.893,0.893,0,0,0,1.77,0v-3.084h2.817a0.827,0.827,0,0,0,.887-0.619,0.71,0.71,0,0,0-.887-0.694H35.436v-1.388h2.817a0.825,0.825,0,0,0,.887-0.619,0.71,0.71,0,0,0-.887-0.694H36.323l3.3-4.869A0.2,0.2,0,0,1,39.7,576.7h0Zm5.916,9.646-2.084.216a0.613,0.613,0,0,0-.5.352,0.581,0.581,0,0,0,.064.591l0.207,0.271-9.132,6.531-2.454-2.931a0.77,0.77,0,0,0-1.026-.126c-1.03.735-2.558,1.815-2.807,1.969a0.7,0.7,0,0,0-.36.862,0.754,0.754,0,0,0,.944.451A17.392,17.392,0,0,0,31,592.811l2.454,2.93a0.756,0.756,0,0,0,.58.267,0.744,0.744,0,0,0,.445-0.144l9.7-6.934,0.15,0.2a0.633,0.633,0,0,0,.5.243,0.452,0.452,0,0,0,.064,0,0.633,0.633,0,0,0,.506-0.353l0.848-1.843a0.589,0.589,0,0,0-.068-0.6,0.655,0.655,0,0,0-.57-0.229h0ZM34.549,571.054a12.324,12.324,0,0,0-12.555,12.053,11.746,11.746,0,0,0,3.676,8.521,0.754,0.754,0,0,0,.527.208,0.769,0.769,0,0,0,.527-0.208,0.694,0.694,0,0,0,0-1.012,10.338,10.338,0,0,1-3.241-7.509,10.86,10.86,0,0,1,11.063-10.621,10.86,10.86,0,0,1,11.063,10.621,0.747,0.747,0,0,0,1.492,0,12.324,12.324,0,0,0-12.552-12.053h0Z" transform="translate(-22 -571.062)"/>
</svg>
