<?xml version="1.0" standalone="no"?><!DOCTYPE svg PUBLIC "-//W3C//DTD SVG 1.1//EN" "http://www.w3.org/Graphics/SVG/1.1/DTD/svg11.dtd"><svg t="1627261360857" class="icon" viewBox="0 0 1024 1024" version="1.1" xmlns="http://www.w3.org/2000/svg" p-id="5152" xmlns:xlink="http://www.w3.org/1999/xlink" width="300" height="300"><defs><style type="text/css">@font-face { font-family: feedback-iconfont; src: url("//at.alicdn.com/t/font_1031158_1uhr8ri0pk5.eot?#iefix") format("embedded-opentype"), url("//at.alicdn.com/t/font_1031158_1uhr8ri0pk5.woff2") format("woff2"), url("//at.alicdn.com/t/font_1031158_1uhr8ri0pk5.woff") format("woff"), url("//at.alicdn.com/t/font_1031158_1uhr8ri0pk5.ttf") format("truetype"), url("//at.alicdn.com/t/font_1031158_1uhr8ri0pk5.svg#iconfont") format("svg"); }
</style></defs><path d="M713 144c-5.5 0-10-4.5-10-10 0-22.9-24.9-50-46-50H217c-21.1 0-46 27.1-46 50 0 5.5-4.5 10-10 10s-10-4.5-10-10c0-15.6 7.6-33.2 20.3-47.1C184.6 72.3 201.2 64 217 64h440c15.8 0 32.4 8.3 45.7 22.9 12.7 13.9 20.3 31.5 20.3 47.1 0 5.5-4.5 10-10 10z" p-id="5153" fill="#e6e6e6"></path><path d="M741 960H123c-22.1 0-40-17.9-40-40V336c0-5.5 4.5-10 10-10s10 4.5 10 10v584c0 11 9 20 20 20h618c5.5 0 10 4.5 10 10s-4.5 10-10 10z m40-509.5c-5.5 0-10-4.5-10-10V178c0-11-9-20-20-20H123c-11 0-20 9-20 20v39c0 5.5-4.5 10-10 10s-10-4.5-10-10v-39c0-22.1 17.9-40 40-40h628c22.1 0 40 17.9 40 40v262.5c0 5.5-4.5 10-10 10z" p-id="5154" fill="#e6e6e6"></path><path d="M93 276m-16 0a16 16 0 1 0 32 0 16 16 0 1 0-32 0Z" p-id="5155" fill="#e6e6e6"></path><path d="M891.1 834.2H706.6c-7.7 0-14.6-3.9-18.4-10.4-3.9-6.6-4-15-0.2-21.8 1.7-3 9.5-16.7 24.6-42.9a147.44 147.44 0 0 1-43.2-48.4c-12.2-22-18.6-46.8-18.6-72 0-81.6 66.3-148 147.7-148s147.7 66.4 147.7 148c0 25-6.3 49.7-18.4 71.6-10.5 19-25.2 35.6-42.8 48.4 13.1 22.8 23.3 40.5 24.7 42.9 4 7.1 4.1 15.2 0.2 21.9-3.8 6.6-11 10.7-18.8 10.7z m-92.6-323.4c-70.4 0-127.7 57.4-127.7 128 0 44.6 22.5 85.3 60.4 108.8 4.6 2.8 6.1 8.8 3.4 13.5-17.8 31-27.4 47.5-29.1 50.7-0.4 0.8-0.3 1.6-0.1 2 0.1 0.2 0.3 0.5 1.2 0.5h184.5c0.8 0 1.3-0.4 1.6-0.8 0.1-0.2 0.4-0.7-0.3-1.9-1.5-2.6-14-24.3-29.3-50.9-2.7-4.7-1.2-10.6 3.3-13.5 37.5-23.6 59.8-64.1 59.8-108.4 0-70.6-57.3-128-127.7-128zM907 902H692c-5.5 0-10-4.5-10-10s4.5-10 10-10h215c5.5 0 10 4.5 10 10s-4.5 10-10 10zM937 960H662c-5.5 0-10-4.5-10-10s4.5-10 10-10h275c5.5 0 10 4.5 10 10s-4.5 10-10 10zM253.3 333.6c-2.3 0-4.6-0.8-6.5-2.4l-70.7-60.7c-4.2-3.6-4.7-9.9-1.1-14.1 3.6-4.2 9.9-4.7 14.1-1.1l64.2 55.1 65.6-55.2c4.2-3.6 10.5-3 14.1 1.2 3.6 4.2 3 10.5-1.2 14.1l-72.1 60.7c-1.8 1.6-4.1 2.4-6.4 2.4z" p-id="5156" fill="#e6e6e6"></path><path d="M254.2 453.4c-5.5 0-10-4.5-10-10V332.1c0-5.5 4.5-10 10-10s10 4.5 10 10v111.3c0 5.5-4.4 10-10 10z" p-id="5157" fill="#e6e6e6"></path><path d="M325.4 364H182.6c-5.5 0-10-4.5-10-10s4.5-10 10-10h142.7c5.5 0 10 4.5 10 10s-4.4 10-9.9 10zM325.4 402.2H182.6c-5.5 0-10-4.5-10-10s4.5-10 10-10h142.7c5.5 0 10 4.5 10 10s-4.4 10-9.9 10zM683 287H447c-5.5 0-10-4.5-10-10s4.5-10 10-10h236c5.5 0 10 4.5 10 10s-4.5 10-10 10zM683 365H447c-5.5 0-10-4.5-10-10s4.5-10 10-10h236c5.5 0 10 4.5 10 10s-4.5 10-10 10zM683 442H447c-5.5 0-10-4.5-10-10s4.5-10 10-10h236c5.5 0 10 4.5 10 10s-4.5 10-10 10zM592 572H182.5c-5.5 0-10-4.5-10-10s4.5-10 10-10H592c5.5 0 10 4.5 10 10s-4.5 10-10 10zM592 662H182.5c-5.5 0-10-4.5-10-10s4.5-10 10-10H592c5.5 0 10 4.5 10 10s-4.5 10-10 10zM592 752H182.5c-5.5 0-10-4.5-10-10s4.5-10 10-10H592c5.5 0 10 4.5 10 10s-4.5 10-10 10zM592 842H182.5c-5.5 0-10-4.5-10-10s4.5-10 10-10H592c5.5 0 10 4.5 10 10s-4.5 10-10 10z" p-id="5158" fill="#e6e6e6"></path></svg>