<svg xmlns="http://www.w3.org/2000/svg" width="25.094" height="18.031" viewBox="0 0 25.094 18.031">
  <metadata><?xpacket begin="﻿" id="W5M0MpCehiHzreSzNTczkc9d"?>
<x:xmpmeta xmlns:x="adobe:ns:meta/" x:xmptk="Adobe XMP Core 5.6-c138 79.159824, 2016/09/14-01:09:01        ">
   <rdf:RDF xmlns:rdf="http://www.w3.org/1999/02/22-rdf-syntax-ns#">
      <rdf:Description rdf:about=""/>
   </rdf:RDF>
</x:xmpmeta>
                                                                                                    
                                                                                                    
                                                                                                    
                                                                                                    
                                                                                                    
                                                                                                    
                                                                                                    
                                                                                                    
                                                                                                    
                                                                                                    
                                                                                                    
                                                                                                    
                                                                                                    
                                                                                                    
                                                                                                    
                                                                                                    
                                                                                                    
                                                                                                    
                                                                                                    
                                                                                                    
                           
<?xpacket end="w"?></metadata>
<defs>
    <style>
      .cls-1 {
        fill: #fff;
        fill-rule: evenodd;
      }
    </style>
  </defs>
  <path id="资金视图" class="cls-1" d="M42.405,331.2h-3.4a0.325,0.325,0,0,1-.413-0.226l-0.5-1.554L36.5,336.6s-0.029.368-.236,0.368H35.7a0.339,0.339,0,0,1-.414-0.226l-1.979-9.381L31.8,334.137a0.388,0.388,0,0,1-.443.254H30.826a0.37,0.37,0,0,1-.443-0.226l-1-3H26.661a0.352,0.352,0,0,1-.355-0.339v-0.65a0.352,0.352,0,0,1,.355-0.339h3.367a0.4,0.4,0,0,1,.443.2L31,331.594l1.477-7.347a0.31,0.31,0,0,1,.3-0.226h0.738a0.339,0.339,0,0,1,.414.226l1.979,9.3,1.418-6.641a0.3,0.3,0,0,1,.355-0.254H38.27a0.326,0.326,0,0,1,.413.226l1,3.052h2.718a0.352,0.352,0,0,1,.355.339v0.65A0.328,0.328,0,0,1,42.405,331.2Zm3.9-9.352H22.792a0.777,0.777,0,0,0-.8.763v16.5a0.777,0.777,0,0,0,.8.763H46.3a0.778,0.778,0,0,0,.8-0.763v-16.5A0.778,0.778,0,0,0,46.3,321.846Zm-1.359,15.682a0.641,0.641,0,0,1-.65.621H24.712a0.641,0.641,0,0,1-.65-0.621v-13.45a0.642,0.642,0,0,1,.65-0.622H44.266a0.642,0.642,0,0,1,.65.622v13.45h0.03Z" transform="translate(-22 -321.844)"/>
</svg>
