<svg xmlns="http://www.w3.org/2000/svg" width="25.094" height="24.938" viewBox="0 0 25.094 24.938">
  <metadata><?xpacket begin="﻿" id="W5M0MpCehiHzreSzNTczkc9d"?>
<x:xmpmeta xmlns:x="adobe:ns:meta/" x:xmptk="Adobe XMP Core 5.6-c138 79.159824, 2016/09/14-01:09:01        ">
   <rdf:RDF xmlns:rdf="http://www.w3.org/1999/02/22-rdf-syntax-ns#">
      <rdf:Description rdf:about=""/>
   </rdf:RDF>
</x:xmpmeta>
                                                                                                    
                                                                                                    
                                                                                                    
                                                                                                    
                                                                                                    
                                                                                                    
                                                                                                    
                                                                                                    
                                                                                                    
                                                                                                    
                                                                                                    
                                                                                                    
                                                                                                    
                                                                                                    
                                                                                                    
                                                                                                    
                                                                                                    
                                                                                                    
                                                                                                    
                                                                                                    
                           
<?xpacket end="w"?></metadata>
<defs>
    <style>
      .cls-1 {
        fill: #fff;
        fill-rule: evenodd;
      }
    </style>
  </defs>
  <path id="金融投资" class="cls-1" d="M38.209,384.4H35.333v-1.04h2.877a0.78,0.78,0,1,0,0-1.559H35.925l1.971-2.6a0.756,0.756,0,0,0-.157-1.091,0.768,0.768,0,0,0-1.1.155L34.5,381.1l-2.145-2.83a0.768,0.768,0,0,0-1.1-.155A0.756,0.756,0,0,0,31.1,379.2l1.97,2.6H30.834a0.78,0.78,0,1,0,0,1.559h2.929v1.04H30.834a0.78,0.78,0,1,0,0,1.56h2.929v2.6a0.785,0.785,0,0,0,1.569,0v-2.6h2.877A0.78,0.78,0,1,0,38.209,384.4Zm8.474-3.9a1.027,1.027,0,0,0-1.988.52,10.724,10.724,0,0,1,.314,2.6,10.462,10.462,0,1,1-10.462-10.4,10.671,10.671,0,0,1,6.957,2.6,9.126,9.126,0,0,1,1.2,1.248,1.02,1.02,0,0,0,1.465.156,1,1,0,0,0,.2-1.388l-0.467-2.875a0.774,0.774,0,0,0-.889-0.624,0.734,0.734,0,0,0-.628.884l0.121,0.745a12.469,12.469,0,1,0,4.587,9.7A12.878,12.878,0,0,0,46.684,380.5Z" transform="translate(-22 -371.156)"/>
</svg>
